<svg xmlns="http://www.w3.org/2000/svg" viewBox="0 0 380 230" role="img" aria-labelledby="title desc">
<title id="title">Store safely relaunched</title>
<desc id="desc">Verified backups, rotated credentials and tested catalogue, cart and checkout.</desc>

  <defs>
    <linearGradient id="bg" x1="0" y1="0" x2="1" y2="1">
      <stop offset="0" stop-color="#07111f"/>
      <stop offset="0.58" stop-color="#0b1d31"/>
      <stop offset="1" stop-color="#111827"/>
    </linearGradient>
    <linearGradient id="accent" x1="0" y1="0" x2="1" y2="0">
      <stop offset="0" stop-color="#38bdf8"/>
      <stop offset="0.52" stop-color="#2dd4bf"/>
      <stop offset="1" stop-color="#a78bfa"/>
    </linearGradient>
  </defs>

<rect width="380" height="230" rx="22" fill="url(#bg)"/>
<rect x="1" y="1" width="378" height="228" rx="21" fill="none" stroke="#38bdf8" stroke-opacity="0.35" stroke-width="2"/>
<circle cx="317" cy="75" r="62" fill="#38bdf8" fill-opacity="0.06"/>

        <path d="M314 45l26 9v20c0 20-11 33-26 41-15-8-26-21-26-41V54z" fill="#0f2a43" stroke="#38bdf8" stroke-width="3"/>
        <path d="M302 79l8 8 17-20" fill="none" stroke="#2dd4bf" stroke-width="4" stroke-linecap="round" stroke-linejoin="round"/>
<g font-family="Inter, Segoe UI, Arial, sans-serif">
  <text x="24" y="34" fill="#38bdf8" font-size="12" font-weight="800" letter-spacing="1.5">CUSTOMER PROTECTION</text>
  <text x="24" y="82" fill="#f8fafc" font-size="35" font-weight="900">RECOVERED</text>
  <text x="24" y="116" fill="#f8fafc" font-size="20" font-weight="800">Store safely relaunched</text>
  <text x="24" y="153" fill="#cbd5e1" font-size="14">Verified backups, rotated credentials</text>
  <text x="24" y="176" fill="#cbd5e1" font-size="14">and tested catalogue, cart and checkout.</text>
  <rect x="24" y="198" width="155" height="4" rx="2" fill="#38bdf8"/>
  <text x="196" y="205" fill="#94a3b8" font-size="12" font-weight="700">READ THE STORY →</text>
</g>
</svg>